<svg width="294" height="294" viewBox="0 0 294 294" fill="none" xmlns="http://www.w3.org/2000/svg">
<path d="M147 0C247.227 0 294 46.7727 294 147C294 247.227 247.227 294 147 294C46.7727 294 0 247.227 0 147C0 46.7727 46.7727 0 147 0Z" fill="#FCF5E3"/>
<path d="M96.3828 192.105C96.9419 189.62 99.4096 188.059 101.895 188.618C108.44 190.091 126.887 193.117 147 193.117C149.547 193.117 151.611 195.182 151.611 197.729C151.611 200.276 149.547 202.34 147 202.341C126.12 202.341 106.989 199.219 99.8691 197.617C97.3845 197.058 95.8239 194.59 96.3828 192.105ZM174.225 91.6805C176.76 91.4344 179.014 93.2892 179.261 95.8241C180.75 111.163 188.312 142.366 197.358 163.54C198.335 165.826 197.324 168.474 195.072 169.528C175.084 178.885 154.577 174.446 143.848 164.4C141.989 162.66 141.892 159.741 143.633 157.882C145.374 156.022 148.292 155.927 150.151 157.668C157.249 164.313 171.681 168.395 187.104 162.851C178.508 141.141 171.564 112.001 170.08 96.7157C169.834 94.1807 171.69 91.9267 174.225 91.6805ZM117.023 91.6581C125.938 91.6582 133.164 98.8852 133.164 107.8C133.164 116.714 125.938 123.941 117.023 123.941C108.109 123.941 100.882 116.714 100.882 107.8C100.882 98.8852 108.109 91.6581 117.023 91.6581Z" fill="#D84D4D"/>
</svg>
