<svg width="44" height="44" viewBox="0 0 44 44" fill="none" xmlns="http://www.w3.org/2000/svg">
<path d="M22 0C37 0 44 7 44 22C44 37 37 44 22 44C7 44 0 37 0 22C0 7 7 0 22 0Z" fill="#FCF5E3"/>
<path d="M15.0349 25.4039C15.3642 25.2393 15.7647 25.3726 15.9294 25.7018C16.8887 27.6203 18.8185 28.6666 21.9998 28.6666C22.3679 28.6666 22.6667 28.9654 22.6667 29.3336C22.6666 29.7017 22.3678 29.9996 21.9998 29.9996C18.5149 29.9996 16 28.8241 14.7371 26.2985C14.5725 25.9693 14.7059 25.5687 15.0349 25.4039ZM25.9353 14.0035C26.3018 13.968 26.6282 14.2357 26.6638 14.6022C26.8791 16.8195 27.9723 21.3304 29.28 24.3912C29.421 24.7216 29.2743 25.1042 28.949 25.2565C26.0597 26.6088 23.0957 25.9673 21.5447 24.5153C21.2759 24.2636 21.2618 23.8417 21.5134 23.5729C21.765 23.3043 22.1871 23.2902 22.4558 23.5416C23.4818 24.5022 25.568 25.093 27.7976 24.2916C26.555 21.1532 25.5512 16.9408 25.3367 14.7311C25.3011 14.3647 25.569 14.0393 25.9353 14.0035ZM17.6667 13.9996C18.9554 13.9996 19.9998 15.045 19.9998 16.3336C19.9996 17.6221 18.9553 18.6666 17.6667 18.6666C16.3782 18.6666 15.3339 17.6221 15.3337 16.3336C15.3337 15.045 16.3781 13.9996 17.6667 13.9996Z" fill="#D84D4D"/>
</svg>
