<svg width="44" height="44" viewBox="0 0 44 44" fill="none" xmlns="http://www.w3.org/2000/svg">
<path d="M22 0C37 0 44 7 44 22C44 37 37 44 22 44C7 44 0 37 0 22C0 7 7 0 22 0Z" fill="#DDF8EF"/>
<path d="M15.0349 25.4041C15.3642 25.2394 15.7647 25.3727 15.9294 25.7019C16.8887 27.6204 18.8185 28.6667 21.9998 28.6667C22.3679 28.6667 22.6667 28.9655 22.6667 29.3337C22.6666 29.7018 22.3678 29.9998 21.9998 29.9998C18.5149 29.9997 16 28.8242 14.7371 26.2986C14.5725 25.9694 14.7059 25.5688 15.0349 25.4041ZM25.9353 14.0037C26.3018 13.9681 26.6282 14.2358 26.6638 14.6023C26.8791 16.8197 27.9723 21.3306 29.28 24.3914C29.421 24.7217 29.2743 25.1043 28.949 25.2566C26.0597 26.609 23.0957 25.9675 21.5447 24.5154C21.2759 24.2637 21.2618 23.8418 21.5134 23.573C21.765 23.3044 22.1871 23.2903 22.4558 23.5417C23.4818 24.5023 25.568 25.0931 27.7976 24.2917C26.555 21.1534 25.5512 16.9409 25.3367 14.7312C25.3011 14.3649 25.569 14.0394 25.9353 14.0037ZM17.6667 13.9998C18.9554 13.9998 19.9998 15.0451 19.9998 16.3337C19.9996 17.6223 18.9553 18.6667 17.6667 18.6667C16.3782 18.6667 15.3339 17.6223 15.3337 16.3337C15.3337 15.0451 16.3781 13.9998 17.6667 13.9998Z" fill="#5CAD9A"/>
</svg>
